
<svg version="1.1" viewBox="0 0 1556 1552" width="1280" height="1280" xmlns="http://www.w3.org/2000/svg">
<path transform="translate(0)" d="m0 0h1556v1552h-1556z" fill="#FDFDFD"/>
<path transform="translate(529,87)" d="m0 0h11l21 3 18 6 19 10 10 8 12 11 10 14 8 15 6 16 3 13v27l-3 19v5h143l2 1 1 120 1 20v38l44 1 9 3 7 6 5 10 1 59 23 9 3 2 5-1 12-12 5-6 13-13 12-9 9-3 11 2 10 7 12 11 60 60 9 11 4 9v7l-4 10-9 10-14 15-12 12-5 4 1 7 5 10 5 12 1 1h45l13 1 8 4 8 9 2 4 1 38v85l-4 10-8 7-8 3-6 1-51 1-11 22v9h2l7 8 26 26 7 10 1 2v10l-5 10-9 10-4 5-8 7-61 61-10 6-3 1h-9l-9-4-12-11-28-28h-6l-16 7-7 2-1 3v54l-4 10-5 6-8 4-3 1-27 1h-49v158l-1 19-1 2h-144l-6-3-4-5-1-2v-9l7-15 5-17 1-8v-14l-2-13-5-14-7-12-9-11-12-9-16-8-13-4-7-1h-19l-15 3-12 5-12 7-12 11-8 11-7 14-4 16-1 7v15l5 19 5 12 4 7v6l-4 6-5 5-3 1h-88l-15-3-14-5-14-8-10-8-13-13-9-14-7-15-4-16-1-11-1-55-20 4-6 1h-19l-17-3-17-6-15-8-13-10-10-9-8-10-9-15-6-14-5-21-1-18 2-18 4-15 5-12 9-16 9-11 9-9 14-10 17-9 16-5 14-3h22l22 5h3l1-55v-477l2-19 5-16 7-13 10-13 14-14 17-10 15-6 18-4h59l-1-8-3-15v-24l4-20 6-15 7-13 12-16 7-7 13-10 19-10 20-7z" fill="#49454B"/>
<path transform="translate(791,234)" d="m0 0h141l9 1 7 7 1 3v8l-8 18-4 16-1 6v19l3 12 5 12 6 10 9 11 9 8 10 6 15 6 9 2 17 1 15-2 15-6 11-6 10-8 7-7 9-14 5-13 3-13v-21l-4-17-4-11-5-9v-8l4-6 5-4 2-1h86l18 3 12 4 16 8 11 8 13 13 10 15 7 16 4 15 1 12 1 53 10-2 13-2h21l20 4 13 5 16 8 9 6 12 11 7 7 10 15 7 15 5 17 2 11v29l-3 14-5 14-8 15-9 12-9 10-10 9-17 10-15 6-20 5-8 1h-9l-23-3-9-2-1 91-1 31v415l-2 15-7 19-6 10-7 9-9 10-13 10-16 8-13 5-21 3h-54l4 14 2 17v11l-2 13-4 16-7 15-6 11-10 13-10 10-14 10-16 8-18 6-11 2h-28l-15-3-16-6-15-8-12-9-14-14-10-15-8-16-4-13-3-17v-21l3-18 2-6h-143l-5-1-1-21v-136l1-22 4-1h53l19-1 9-4 5-5 4-7 1-4v-54l4-4 19-8 2-1h6l36 36 7 5 6 2h9l10-5 10-9 60-60h2l2-4 8-8 6-10 1-3v-10l-6-9-9-10-25-25v-2h-2l-1-2v-7l11-22 1-1 51-1 12-3 6-4 4-5 3-8v-85l-1-38-6-9-6-5-5-2-13-1h-45l-3-4-8-19-2-3v-5l15-14 11-11 14-16 4-10v-7l-6-12-16-17-58-58-11-8-6-3-8-1-9 3-9 7-10 9-4 5h-2l-2 4h-2l-2 4-8 8h-2l-2 4-6-1-13-6-11-4-1-5-1-55-5-10-8-6-7-2-42-1-2-1-1-121v-57z" fill="#FD4B53"/>
<path transform="translate(529,87)" d="m0 0h11l21 3 18 6 19 10 10 8 12 11 10 14 8 15 6 16 3 13v27l-3 19v5h143l2 1 1 120 1 20 1 39-7 1-71 1-8 4-7 8-2 6-1 57-8 5-16 7-6 2-36-36-8-6-5-2h-12l-8 4-15 14-67 67-5 9-1 4v8l4 9 5 6v2h2l7 8 25 25-1 6-7 16-3 8-2 1-58 1-8 4-7 8-2 4-1 17v41l-1 54h-1v-33h-177l-1-1v-414l2-19 5-16 7-13 10-13 14-14 17-10 15-6 18-4h59l-1-8-3-15v-24l4-20 6-15 7-13 12-16 7-7 13-10 19-10 20-7z" fill="#16A1FD"/>
<path transform="translate(791,234)" d="m0 0h141l9 1 7 7 1 3v8l-8 18-4 16-1 6v19l3 12 5 12 6 10 9 11 9 8 10 6 15 6 9 2 17 1 15-2 15-6 11-6 10-8 7-7 9-14 5-13 3-13v-21l-4-17-4-11-5-9v-8l4-6 5-4 2-1h86l18 3 12 4 16 8 11 8 13 13 10 15 7 16 4 15 1 12 1 53 10-2 13-2h21l20 4 13 5 16 8 9 6 12 11 7 7 10 15 7 15 5 17 2 11v29l-3 14-5 14-8 15-9 12-9 10-10 9-17 10-15 6-20 5-8 1h-9l-23-3-9-2-1 91-1 26h-178l-1-1-1-9-1-38-6-9-6-5-5-2-13-1h-45l-3-4-8-19-2-3v-5l15-14 11-11 14-16 4-10v-7l-6-12-16-17-58-58-11-8-6-3-8-1-9 3-9 7-10 9-4 5h-2l-2 4h-2l-2 4-8 8h-2l-2 4-6-1-13-6-11-4-1-5-1-55-5-10-8-6-7-2-42-1-2-1-1-121v-57z" fill="#FECC05"/>
<path transform="translate(458,743)" d="m0 0 3 1 1 33 3 16 4 6 7 6 9 3 55 1 5 10 4 9 3 7-1 5-10 9-27 27-5 10-1 9 3 9 9 11 73 73 5 4 10 4 10-1 9-5 12-11 23-23 3-4 5 1 21 9 4 2 1 2v47l2 13 6 8v2l4 2 8 3 43 1 2 4v154l-1 19-1 2h-144l-6-3-4-5-1-2v-9l7-15 5-17 1-8v-14l-2-13-5-14-7-12-9-11-12-9-16-8-13-4-7-1h-19l-15 3-12 5-12 7-12 11-8 11-7 14-4 16-1 7v15l5 19 5 12 4 7v6l-4 6-5 5-3 1h-88l-15-3-14-5-14-8-10-8-13-13-9-14-7-15-4-16-1-11-1-55-20 4-6 1h-19l-17-3-17-6-15-8-13-10-10-9-8-10-9-15-6-14-5-21-1-18 2-18 4-15 5-12 9-16 9-11 9-9 14-10 17-9 16-5 14-3h22l22 5h3l2-117z" fill="#2AD47B"/>
<path transform="translate(761,559)" d="m0 0h27l22 3 19 5 22 9 18 10 16 12 9 8v2l4 2 7 8 8 10 10 15 8 16 7 19 6 24 1 10v31l-4 24-6 20-7 16-10 18-10 13-9 10-5 6-8 7-11 9-20 12-15 7-21 7-20 4-9 1h-30l-19-3-21-6-15-6-19-10-14-10-14-12-7-7-7-8-11-15-10-18-8-21-6-22-2-14-1-20 2-23 6-25 8-20 8-16 12-17 9-10 6-7 16-14 15-10 12-7 20-8 21-6 10-2z" fill="#FEFEFE"/>
<path transform="translate(761,559)" d="m0 0h27l22 3 19 5 22 9 18 10 16 12 9 8v2l4 2 7 8 8 10 10 15 8 16 7 19 6 24 1 10v31l-4 24-6 20-7 16-10 18-10 13-9 10-5 6-8 7-11 9-20 12-15 7-21 7-20 4-9 1h-30l-19-3-21-6-15-6-19-10-14-10-14-12-7-7-7-8-11-15-10-18-8-21-6-22-2-14-1-20 2-23 6-25 8-20 8-16 12-17 9-10 6-7 16-14 15-10 12-7 20-8 21-6 10-2zm7 20-18 2-17 4-19 7-18 10-14 10-13 12-11 12-10 15-8 15-7 19-5 23-1 9v22l3 19 4 15 8 21 11 19 13 16 12 12 18 13 21 11 24 8 25 4h18l21-3 15-4 17-6 20-11 12-9 10-9 11-11 11-15 10-18 8-20 4-17 2-17v-15l-3-25-5-19-7-16-8-14-8-11-9-11-10-10-13-10-17-10-15-7-15-5-20-4-10-1z" fill="#38BBF5"/>
<path opacity="0.15" fill-rule="evenodd" clip-rule="evenodd" d="M3 1C1.89543 1 1 1.89543 1 3V37C1 38.1046 1.89543 39 3 39H18.9C20.0046 39 20.9 38.1046 20.9 37V3C20.9 1.89543 20.0046 1 18.9 1H15.6631V2H6.23676V1H3Z" fill="url(#paint0_linear)"/>
<path d="M8.50854 35.6745C8.13501 35.6745 7.83221 35.9773 7.83221 36.3508C7.83221 36.7243 8.13501 37.0271 8.50854 37.0271V35.6745ZM13.4633 37.0271C13.8368 37.0271 14.1396 36.7243 14.1396 36.3508C14.1396 35.9773 13.8368 35.6745 13.4633 35.6745V37.0271ZM0.400024 29.4141C0.400024 29.7876 0.702827 30.0904 1.07635 30.0904C1.44988 30.0904 1.75268 29.7876 1.75268 29.4141H0.400024ZM1.75268 32.387C1.75268 32.0134 1.44988 31.7106 1.07635 31.7106C0.702827 31.7106 0.400024 32.0134 0.400024 32.387H1.75268ZM20.2192 7.61303C20.2192 7.98656 20.522 8.28936 20.8955 8.28936C21.269 8.28936 21.5718 7.98656 21.5718 7.61303H20.2192ZM21.5718 10.5859C21.5718 10.2124 21.269 9.90956 20.8955 9.90956C20.522 9.90956 20.2192 10.2124 20.2192 10.5859H21.5718ZM18.48 38.6473H3.49181V40H18.48V38.6473ZM3.49181 1.35266H6.52662V0H3.49181V1.35266ZM5.8503 1.69206H7.20295V0.676328H5.8503V1.69206ZM7.49281 3.33457H14.4791V1.98191H7.49281V3.33457ZM6.52662 1.35266H15.4452V0H6.52662V1.35266ZM15.4452 1.35266H18.48V0H15.4452V1.35266ZM16.1216 1.69206V0.676328H14.7689V1.69206H16.1216ZM8.50854 37.0271H13.4633V35.6745H8.50854V37.0271ZM1.75268 29.4141V3.09179H0.400024V29.4141H1.75268ZM1.75268 36.9082V32.387H0.400024V36.9082H1.75268ZM20.2192 3.09179V7.61303H21.5718V3.09179H20.2192ZM20.2192 10.5859V36.9082H21.5718V10.5859H20.2192ZM14.4791 3.33457C15.3862 3.33457 16.1216 2.5992 16.1216 1.69206H14.7689C14.7689 1.85214 14.6392 1.98191 14.4791 1.98191V3.33457ZM3.49181 38.6473C2.53132 38.6473 1.75268 37.8687 1.75268 36.9082H0.400024C0.400024 38.6157 1.78427 40 3.49181 40V38.6473ZM18.48 40C20.1876 40 21.5718 38.6157 21.5718 36.9082H20.2192C20.2192 37.8687 19.4405 38.6473 18.48 38.6473V40ZM18.48 1.35266C19.4405 1.35266 20.2192 2.13129 20.2192 3.09179H21.5718C21.5718 1.38424 20.1876 0 18.48 0V1.35266ZM5.8503 1.69206C5.8503 2.5992 6.58567 3.33457 7.49281 3.33457V1.98191C7.33272 1.98191 7.20295 1.85214 7.20295 1.69206H5.8503ZM3.49181 0C1.78427 0 0.400024 1.38424 0.400024 3.09179H1.75268C1.75268 2.13129 2.53132 1.35266 3.49181 1.35266V0Z" fill="url(#paint1_linear)"/>
</svg>
